<?xml version="1.0" standalone="no"?>
<!DOCTYPE svg PUBLIC "-//W3C//DTD SVG 20010904//EN"
 "http://www.w3.org/TR/2001/REC-SVG-20010904/DTD/svg10.dtd">
<svg version="1.0" xmlns="http://www.w3.org/2000/svg"
 width="1024.000000pt" height="512.000000pt" viewBox="0 0 1024.000000 512.000000"
 preserveAspectRatio="xMidYMid meet">

<g transform="translate(0.000000,512.000000) scale(0.100000,-0.100000)"
fill="#000000" stroke="none">
<path d="M0 3359 c0 -1746 0 -1761 20 -1786 23 -30 29 -103 7 -84 -8 6 -17 8
-20 4 -4 -3 -7 -99 -7 -213 0 -194 1 -208 20 -225 25 -23 25 -36 0 -77 -18
-29 -20 -51 -20 -180 0 -141 1 -146 20 -141 14 4 22 -1 29 -19 9 -24 15 -84
12 -124 -2 -34 -29 -37 -45 -6 -14 24 -15 1 -16 -240 l0 -268 2033 1 c1117 1
2021 4 2007 6 -14 2 -79 15 -145 28 -117 24 -259 51 -320 62 -49 9 -58 21 -52
78 9 84 56 335 67 356 8 15 21 19 58 19 112 -1 353 -59 392 -95 9 -8 21 -11
28 -6 7 4 34 4 60 0 26 -4 53 -8 59 -8 7 -1 19 -12 28 -24 14 -22 13 -33 -4
-118 -11 -52 -27 -119 -34 -149 -8 -30 -18 -76 -21 -102 l-7 -48 3045 0 3046
0 0 1434 c0 1411 0 1434 -20 1457 l-19 24 -1 -34 c0 -28 -3 -33 -20 -28 -13 3
-20 0 -21 -9 -1 -8 -3 -18 -4 -24 -1 -5 -3 -18 -4 -27 -3 -29 -49 31 -57 73
-7 36 7 84 25 84 5 0 14 -15 21 -32 l12 -33 9 32 c10 36 44 64 65 56 12 -4 14
67 14 455 l0 459 -25 -5 c-30 -5 -75 5 -75 18 0 5 23 17 50 27 l50 18 0 587 0
588 -3390 0 c-1864 0 -3390 -2 -3390 -6 0 -13 50 -183 64 -216 20 -48 21 -112
1 -128 -8 -7 -15 -18 -15 -25 0 -7 7 -18 15 -25 10 -9 15 -9 15 -1 0 18 19 13
54 -14 18 -14 37 -25 41 -25 17 0 44 -32 38 -46 -9 -24 -37 -16 -73 21 -19 20
-50 42 -67 50 -18 8 -33 19 -33 25 0 14 -30 6 -90 -25 -25 -13 -100 -40 -165
-60 -66 -21 -127 -43 -135 -50 -8 -7 -49 -25 -90 -40 -41 -15 -84 -32 -94 -38
-29 -14 -92 -15 -111 -1 -9 7 -25 48 -36 91 -11 43 -27 97 -35 121 -16 42 -17
43 -31 23 -14 -21 -73 -30 -73 -12 0 14 41 41 63 41 15 0 17 7 15 51 l-3 52
85 27 c83 26 154 53 395 150 66 26 129 50 140 53 11 2 -379 5 -867 6 -489 0
-888 -1 -888 -3 0 -2 14 -35 32 -72 42 -90 48 -166 19 -248 -27 -78 -58 -116
-122 -151 -49 -27 -63 -30 -145 -30 -87 0 -93 1 -145 36 -67 45 -109 67 -92
49 9 -9 3 -23 -23 -60 -36 -50 -50 -60 -71 -53 -17 6 -16 28 3 65 13 25 13 35
4 59 -10 23 -10 32 0 44 6 8 9 23 5 35 -5 16 -2 20 15 20 19 0 21 4 15 23 -3
12 -9 56 -12 97 -4 58 -1 88 14 133 l20 57 -549 0 -548 0 0 -1761z m8900 1702
c0 -5 -20 -36 -45 -69 -25 -33 -45 -64 -45 -69 0 -6 16 -18 35 -28 23 -13 31
-23 25 -30 -6 -7 -17 -50 -25 -96 -37 -199 -33 -189 -66 -189 -25 0 -29 4 -29
28 0 15 11 69 26 120 14 51 22 101 19 112 -9 28 -35 33 -59 11 -12 -10 -54
-35 -94 -56 -85 -44 -90 -55 -68 -154 9 -38 16 -79 16 -90 0 -20 -108 -132
-155 -161 -23 -13 -26 -12 -57 23 l-33 38 -50 -25 c-98 -50 -107 -46 -172 90
-55 115 -56 117 -39 145 9 16 16 32 14 36 -4 10 174 102 253 133 48 18 59 28
75 62 10 22 31 54 46 70 l28 30 27 -26 c14 -14 31 -26 37 -26 6 0 76 29 156
65 140 63 180 75 180 56z m-3932 -124 c6 -6 14 -25 17 -40 10 -38 23 -41 86
-23 59 18 105 21 113 7 10 -15 63 -233 75 -306 7 -38 21 -104 32 -147 28 -112
27 -114 -28 -126 -27 -6 -70 -14 -98 -17 -27 -3 -110 -20 -183 -37 -98 -22
-136 -28 -145 -19 -10 10 -22 66 -49 231 -7 41 -18 81 -24 88 -16 16 -47 154
-48 212 l-1 45 68 14 68 14 -2 43 c-2 24 0 46 3 49 4 4 48 15 99 24 4 1 11 -5
17 -12z m2172 -97 c0 -27 -38 -110 -50 -110 -15 0 -12 65 6 110 13 33 19 38
30 29 8 -6 14 -20 14 -29z m-307 15 c52 -25 72 -61 72 -130 0 -51 -5 -67 -30
-102 -32 -46 -46 -51 -65 -28 -10 12 -9 23 4 55 9 22 16 51 16 64 0 29 -36 76
-58 76 -44 0 -98 -25 -133 -61 -21 -21 -45 -39 -54 -39 -10 0 -15 -9 -15 -26
0 -21 3 -25 18 -19 38 16 52 17 56 4 2 -8 11 -41 19 -74 8 -33 22 -79 31 -103
19 -49 12 -89 -15 -97 -24 -8 -86 12 -119 37 -27 21 -37 11 -20 -21 9 -18 6
-24 -22 -41 -23 -15 -45 -20 -73 -17 -33 3 -44 0 -61 -21 -19 -23 -24 -24 -53
-14 -37 13 -51 9 -51 -15 0 -9 -12 -36 -26 -61 -22 -37 -24 -48 -15 -69 27
-59 -65 -132 -101 -79 -13 19 -9 63 7 76 8 7 15 19 15 27 0 7 -7 16 -15 19
-21 8 -19 22 10 56 38 45 34 89 -10 119 -44 30 -60 61 -60 115 0 37 6 49 40
84 32 33 46 40 78 40 33 0 38 2 32 19 -7 22 27 47 46 35 6 -3 37 11 71 31 56
35 64 37 116 31 l57 -6 30 41 c37 50 66 72 125 92 58 21 114 21 153 2z m-4248
-135 c10 -16 -13 -38 -47 -45 -49 -11 -56 10 -12 34 46 24 51 24 59 11z m4491
-67 c-7 -61 -17 -80 -35 -69 -16 10 -13 50 6 91 25 52 37 44 29 -22z m2872
-70 c43 -71 82 -134 86 -141 4 -7 -2 -24 -13 -38 -12 -15 -21 -38 -21 -51 0
-18 -8 -27 -32 -37 -58 -24 -96 -27 -106 -10 -7 13 -15 14 -47 5 -21 -6 -42
-8 -47 -5 -5 3 -12 -3 -15 -15 -6 -22 -27 -28 -39 -10 -4 7 -26 8 -63 4 -55
-6 -57 -6 -93 32 -31 32 -40 51 -53 113 -8 41 -27 111 -42 154 -18 57 -23 84
-16 95 10 16 90 23 340 29 l81 2 80 -127z m-7488 82 c0 -14 -48 -45 -70 -45
-22 0 -8 21 28 39 45 24 42 24 42 6z m-122 -52 c-5 -25 -66 -63 -100 -63 -49
0 -31 32 32 57 67 27 72 28 68 6z m1437 -50 c59 -62 65 -73 38 -73 -22 0 -103
83 -103 105 0 9 -4 14 -9 10 -5 -3 -12 -1 -16 5 -3 5 3 10 14 10 11 0 44 -25
76 -57z m-1598 -36 c-3 -8 -19 -18 -36 -22 -16 -3 -35 -13 -42 -21 -13 -15
-55 -19 -63 -5 -7 11 21 35 61 50 18 7 38 20 44 28 11 12 14 12 27 -1 8 -8 12
-21 9 -29z m4835 -42 c2 -27 -2 -45 -13 -56 -9 -9 -21 -25 -27 -35 -8 -15 -13
-16 -25 -6 -13 11 -12 19 5 64 38 101 54 110 60 33z m298 24 c0 -6 18 -33 41
-60 22 -27 36 -49 30 -49 -14 0 -99 77 -112 102 -8 15 -6 18 16 18 14 0 25 -5
25 -11z m-5320 -57 c0 -25 -116 -78 -136 -62 -20 18 -9 29 60 60 64 29 76 30
76 2z m1925 -16 c15 -19 36 -36 47 -38 12 -2 30 -15 41 -31 17 -22 18 -30 8
-40 -9 -9 -21 -3 -55 34 -23 25 -57 54 -74 65 -36 21 -42 44 -13 44 11 0 32
-15 46 -34z m5371 -63 c0 -27 1 -54 4 -62 9 -24 -18 -23 -43 1 -14 13 -32 28
-41 33 -10 6 -18 14 -18 20 0 9 76 55 92 55 4 0 7 -21 6 -47z m-7476 -1 c0
-10 -20 -32 -45 -50 -32 -23 -45 -38 -45 -56 0 -39 -28 -40 -66 -2 -36 36 -47
73 -17 62 9 -4 20 -1 25 6 8 10 11 10 15 1 8 -22 33 -14 76 22 46 40 57 43 57
17z m6955 4 c55 -1 70 -4 70 -16 0 -12 -14 -15 -66 -15 -42 0 -72 -5 -83 -14
-23 -20 -70 -3 -74 26 -4 24 19 34 58 26 14 -3 57 -6 95 -7z m-1298 -43 c21
-27 47 -54 58 -62 41 -30 86 -84 77 -93 -15 -15 -61 9 -68 37 -3 14 -10 25
-14 25 -5 0 -34 24 -66 54 -40 37 -55 58 -51 70 10 26 23 19 64 -31z m1568 35
c13 -12 -30 -26 -92 -29 -64 -4 -79 1 -70 23 5 14 149 19 162 6z m95 2 c20
-12 11 -19 -30 -22 -26 -2 -35 1 -38 15 -3 13 3 17 25 17 15 0 35 -4 43 -10z
m-2183 -64 c-3 -17 -13 -48 -21 -69 -14 -32 -19 -36 -36 -27 -19 10 -19 11 0
64 10 30 24 64 30 77 12 20 13 21 22 4 6 -9 8 -31 5 -49z m1633 14 c0 -23 -6
-33 -24 -42 -53 -23 -75 15 -30 51 38 30 54 27 54 -9z m-8426 4 c8 -3 20 -21
27 -41 12 -37 2 -52 -50 -74 -55 -23 -84 61 -35 100 29 23 34 24 58 15z m1218
-11 c10 -9 18 -20 18 -25 0 -12 -48 -10 -72 3 -21 11 -21 12 -3 25 24 18 34
18 57 -3z m198 2 c10 -12 8 -16 -11 -24 -14 -5 -29 -5 -35 0 -6 5 -13 6 -17 3
-8 -9 -87 6 -87 16 0 8 37 15 106 18 18 1 37 -5 44 -13z m-315 -8 c45 -34 -31
-49 -90 -18 l-30 16 45 6 c25 3 48 7 51 7 3 1 13 -4 24 -11z m-480 -37 c-4 -7
-28 -10 -59 -9 -105 5 -116 22 -23 36 64 9 98 -1 82 -27z m173 23 c-2 -14 -15
-19 -58 -21 -30 -1 -61 2 -69 7 -27 18 1 31 65 31 57 0 65 -2 62 -17z m162 3
c0 -22 -12 -26 -65 -18 -73 11 -71 32 4 32 46 0 61 -3 61 -14z m3007 -16 c8
-17 9 -26 2 -29 -14 -4 -60 40 -53 51 10 16 38 4 51 -22z m-3539 -2 c-3 -22
-8 -23 -85 -24 -45 0 -86 -3 -89 -7 -11 -10 -87 -8 -104 3 -12 7 -12 12 -2 22
11 11 37 13 127 8 11 0 43 3 70 8 81 15 87 15 83 -10z m-318 -23 c0 -29 -30
-35 -51 -9 -10 13 -10 17 2 25 27 17 49 10 49 -16z m8204 9 c4 -11 -6 -20 -37
-34 -81 -37 -106 -15 -31 27 46 27 60 28 68 7z m-5054 -61 c79 -90 78 -182 -4
-257 -53 -48 -42 -75 51 -126 41 -22 81 -40 90 -40 8 0 47 21 85 46 68 45 70
48 62 78 -4 17 -9 76 -9 130 -2 109 -7 120 -72 132 -39 7 -41 14 -10 50 l23
27 63 -48 c72 -55 80 -68 56 -95 -23 -25 -12 -109 22 -169 l25 -43 -35 -34
c-38 -37 -57 -93 -57 -167 0 -24 -7 -52 -15 -63 -8 -10 -15 -32 -15 -47 0 -31
-23 -45 -44 -27 -12 9 -19 7 -36 -10 -11 -11 -45 -31 -76 -45 -43 -19 -60 -22
-80 -15 -14 6 -108 14 -209 19 -101 5 -188 12 -194 16 -16 9 -13 55 4 61 8 4
33 -1 56 -10 l41 -16 -7 67 c-4 38 -12 77 -18 88 -5 11 -43 53 -83 94 -74 74
-74 74 -74 128 0 53 2 57 57 114 54 57 107 98 216 166 41 26 63 33 103 33 47
0 55 -3 84 -37z m835 1 c47 -50 25 -79 -25 -34 -21 18 -30 35 -27 45 9 22 25
19 52 -11z m945 -10 c6 -14 10 -38 10 -54 0 -16 6 -33 14 -37 7 -4 19 -32 25
-62 12 -55 7 -77 -9 -51 -14 22 -70 192 -70 213 0 26 19 21 30 -9z m3135 0 c0
-14 -15 -25 -55 -41 -86 -34 -95 -7 -12 38 53 30 67 31 67 3z m-1439 -46 c-7
-45 -30 -88 -46 -88 -16 0 -11 37 11 85 27 58 44 59 35 3z m803 -33 c45 -49
49 -57 24 -48 -31 11 -93 64 -93 79 0 26 27 14 69 -31z m471 -5 c-33 -26 -60
-34 -72 -22 -6 6 5 19 33 36 30 17 47 22 54 15 7 -7 2 -16 -15 -29z m-3777 -4
c67 -51 85 -59 124 -51 32 6 35 4 46 -24 6 -17 17 -31 24 -31 7 0 13 -9 13
-20 0 -23 -18 -27 -26 -6 -8 20 -40 26 -61 11 -21 -15 -72 -9 -74 9 -1 6 0 21
0 32 2 15 -5 23 -22 28 -36 9 -107 57 -107 73 0 23 37 14 83 -21z m1447 -11
c0 -35 -5 -47 -21 -55 -20 -11 -20 -10 -13 37 7 54 11 63 25 63 5 0 9 -20 9
-45z m2204 -13 c8 -14 -8 -28 -72 -62 -94 -50 -97 -18 -3 42 46 29 66 34 75
20z m-5884 -69 c1 -16 7 -41 14 -58 11 -25 11 -35 0 -57 -15 -29 -27 -32 -142
-42 l-63 -6 -27 60 c-15 33 -30 59 -34 60 -3 0 -4 -26 -1 -58 4 -46 2 -60 -11
-71 -29 -24 -40 2 -41 92 l0 82 53 1 c43 1 57 -4 77 -23 l24 -24 17 26 c21 32
46 44 97 44 34 1 37 -1 37 -26z m4025 -80 c-6 -52 -16 -65 -31 -41 -13 20 -4
91 14 118 l17 25 3 -24 c2 -14 1 -49 -3 -78z m-4383 71 c56 -11 44 -55 -29
-103 -59 -38 -70 -47 -75 -62 -3 -8 -11 -10 -22 -6 -15 6 -17 17 -14 72 2 47
0 65 -9 65 -15 0 -17 -7 -18 -85 0 -54 -2 -60 -22 -63 -22 -3 -23 -1 -23 75 0
79 9 104 40 117 15 5 123 -1 172 -10z m4008 -24 c0 -36 -28 -110 -42 -110 -7
0 -9 20 -5 54 8 82 47 128 47 56z m2027 18 c13 -12 23 -26 23 -32 0 -6 10 -16
22 -21 12 -6 37 -30 56 -55 18 -25 55 -68 83 -96 34 -36 49 -60 49 -79 0 -44
-29 -27 -80 48 -26 37 -60 76 -76 86 -16 10 -40 36 -54 59 -32 52 -58 57 -116
20 -46 -29 -64 -29 -64 -2 0 13 35 33 83 48 9 3 17 15 17 26 0 27 27 26 57 -2z
m-6347 -7 c0 -15 -23 -28 -90 -51 -78 -28 -94 -41 -85 -69 14 -44 107 -20 144
37 28 43 49 62 68 62 25 0 49 -159 26 -167 -7 -3 -22 12 -34 31 -11 20 -25 36
-30 36 -5 0 -22 -13 -38 -28 -31 -33 -116 -51 -151 -32 -21 11 -44 81 -35 109
13 42 53 65 128 71 39 4 78 8 85 9 6 0 12 -3 12 -8z m-414 -26 c4 -8 1 -22 -6
-30 -26 -32 1 -26 41 9 49 41 111 51 124 19 12 -29 16 -133 5 -153 -12 -23
-94 -36 -134 -20 -25 9 -31 7 -53 -16 -14 -15 -30 -24 -39 -20 -9 3 -24 6 -35
6 -20 0 -27 34 -9 45 6 4 8 21 4 41 -8 43 2 99 22 119 20 20 73 20 80 0z
m3645 -26 c8 -15 6 -21 -6 -26 -19 -7 -61 30 -51 45 9 15 45 2 57 -19z m544 1
c3 -5 1 -10 -4 -10 -6 0 -11 5 -11 10 0 6 2 10 4 10 3 0 8 -4 11 -10z m43 -92
c3 -41 2 -50 -8 -42 -15 15 -30 82 -23 101 10 26 26 -4 31 -59z m2342 53 c0
-6 -10 -17 -22 -25 -27 -19 -71 -21 -66 -3 9 25 88 50 88 28z m-2903 -23 c-3
-8 -6 -5 -6 6 -1 11 2 17 5 13 3 -3 4 -12 1 -19z m5390 7 c8 -22 4 -24 -62
-36 -40 -7 -61 -7 -68 0 -14 14 -7 20 40 36 51 19 82 18 90 0z m-5564 -27 c6
-22 -1 -48 -13 -48 -11 0 -31 60 -25 71 9 13 33 -1 38 -23z m291 11 c14 -11
26 -29 26 -40 0 -21 -15 -26 -26 -8 -3 6 -26 20 -51 31 -24 10 -41 23 -38 29
11 16 61 10 89 -12z m1951 -97 c-6 -34 -7 -34 -21 -13 -15 21 -11 52 14 111 9
22 15 -57 7 -98z m725 84 c0 -16 -59 -56 -84 -56 -27 0 -18 29 17 50 38 23 67
26 67 6z m2428 -23 c-3 -18 -53 -40 -105 -45 -22 -2 -28 1 -28 17 0 16 11 22
50 31 73 18 87 17 83 -3z m-3798 -53 c0 -47 -3 -60 -15 -60 -12 0 -15 13 -15
60 0 47 3 60 15 60 12 0 15 -13 15 -60z m-1140 15 c12 -14 3 -45 -12 -45 -5 0
-24 10 -40 22 -28 19 -29 22 -14 34 19 13 50 8 66 -11z m2374 16 c12 -19 -6
-39 -54 -61 -79 -37 -82 3 -4 47 44 25 50 27 58 14z m-1642 -42 c-3 -41 -32
-139 -41 -139 -8 0 4 137 14 163 12 29 30 13 27 -24z m4036 19 c-6 -16 -97
-51 -115 -44 -23 9 -14 23 25 39 46 20 95 22 90 5z m-5176 -65 c24 -63 23 -66
-11 -49 -23 12 -30 23 -33 55 -7 79 13 76 44 -6z m4964 40 c19 -24 25 -26 42
-16 11 6 23 9 26 6 12 -13 5 -44 -11 -50 -10 -3 -30 -15 -45 -25 -35 -24 -48
-23 -48 7 0 13 -5 35 -11 49 -13 28 -6 56 13 56 7 0 22 -12 34 -27z m-4368
-78 c4 -18 -9 -16 -68 6 -29 11 -54 45 -45 60 9 13 109 -45 113 -66z m2042 47
c0 -18 -125 -77 -141 -66 -20 12 -6 26 59 58 70 34 82 36 82 8z m-436 -19 c-1
-7 -2 -31 -2 -53 -2 -38 -23 -63 -39 -46 -8 7 -11 86 -5 104 6 16 47 11 46 -5z
m-1505 -33 c18 -25 19 -31 7 -36 -24 -9 -56 14 -56 41 0 34 22 31 49 -5z
m3759 24 c12 -4 29 -18 36 -33 13 -24 77 -324 90 -418 l6 -41 -48 -15 c-59
-19 -89 -24 -232 -42 -91 -12 -117 -12 -126 -2 -11 11 -44 197 -75 420 -10 71
-10 90 0 96 7 5 49 11 94 15 79 7 217 22 227 24 3 1 15 -1 28 -4z m-2912 -28
c10 -41 1 -91 -18 -94 -15 -3 -18 5 -18 51 0 29 3 57 7 60 12 13 23 7 29 -17z
m1968 -17 c25 -30 34 -59 18 -59 -16 0 -74 68 -68 79 11 18 23 13 50 -20z
m1406 -2 c0 -17 -58 -60 -70 -52 -15 9 -12 23 10 45 23 23 60 27 60 7z m-5740
-17 c26 -26 25 -46 -2 -54 -34 -8 -64 24 -49 53 14 26 26 26 51 1z m3270 10
c0 -13 -54 -40 -80 -40 -29 0 -25 27 8 38 36 14 72 14 72 2z m-2401 -44 c10
-26 11 -40 3 -48 -12 -12 -26 11 -36 60 -8 46 14 38 33 -12z m756 -1 c0 -39
-1 -40 -35 -40 -31 0 -35 3 -38 28 -5 46 4 59 40 55 31 -3 33 -5 33 -43z
m-215 14 c0 -5 -4 -9 -8 -9 -5 0 -9 7 -9 15 0 8 4 12 9 9 4 -3 8 -9 8 -15z
m504 -63 c-8 -49 -21 -76 -36 -76 -6 0 -2 -10 10 -23 28 -29 28 -67 2 -95 -26
-28 -50 -28 -84 -1 -45 36 -30 100 28 115 19 4 26 17 36 62 15 70 17 73 36 65
12 -4 14 -15 8 -47z m1216 41 c0 -21 -22 -37 -52 -37 -25 0 -28 -3 -28 -35 0
-42 -11 -44 -39 -9 -28 36 -27 54 4 54 13 0 39 9 57 20 38 23 58 25 58 7z
m-3059 -50 c20 -18 41 -41 47 -52 6 -11 19 -20 30 -20 11 0 42 -20 69 -45 26
-25 67 -60 90 -78 59 -46 75 -104 19 -67 -16 11 -26 27 -26 41 0 23 -8 28 -42
25 -9 -1 -42 23 -72 53 -31 31 -58 56 -61 56 -3 0 -13 7 -22 15 -10 9 -35 29
-55 46 -22 18 -35 36 -31 45 7 20 13 18 54 -19z m4378 -4 c36 -44 38 -53 12
-53 -21 0 -71 53 -71 76 0 26 28 15 59 -23z m1181 31 c0 -7 -80 -79 -113 -103
-10 -7 -35 -17 -55 -22 -64 -14 -104 45 -66 99 23 33 41 27 49 -16 8 -51 21
-70 38 -57 8 6 33 22 56 38 22 15 41 34 41 41 0 14 14 24 38 25 6 1 12 -2 12
-5z m-4712 -72 c13 -33 32 -93 32 -99 0 -3 -7 -3 -16 -1 -9 2 -28 30 -43 63
l-28 61 22 2 c16 1 26 -6 33 -26z m3658 -39 c-7 -7 -26 7 -26 19 0 6 6 6 15
-2 9 -7 13 -15 11 -17z m16 -60 c34 -43 75 -90 91 -105 16 -15 27 -35 25 -45
-5 -27 -18 -21 -41 22 -24 44 -39 59 -80 77 -15 7 -30 21 -33 30 -3 10 -8 18
-12 18 -4 1 -22 14 -41 30 -36 30 -34 50 4 50 18 0 40 -20 87 -77z m-855 35
c-3 -8 -6 -5 -6 6 -1 11 2 17 5 13 3 -3 4 -12 1 -19z m-2763 -64 c10 -25 7
-64 -4 -64 -13 0 -32 49 -26 67 7 18 23 16 30 -3z m1488 -6 c30 -9 44 -20 56
-45 14 -29 21 -33 54 -33 49 0 61 -22 53 -98 -6 -48 -2 -73 25 -157 18 -55 42
-125 55 -155 23 -57 49 -164 86 -355 12 -60 23 -119 26 -130 3 -14 -5 -26 -26
-40 -17 -11 -31 -26 -31 -33 0 -8 16 -42 35 -76 19 -35 35 -73 35 -85 0 -33
-27 -67 -75 -96 -50 -29 -64 -30 -90 -11 -16 12 -17 17 -6 43 10 25 8 36 -14
86 -15 31 -31 86 -37 121 l-11 65 -45 -18 -45 -18 2 -87 c3 -116 17 -194 38
-218 17 -19 17 -20 -2 -34 -24 -18 -59 -18 -74 0 -8 9 -24 12 -50 9 -27 -4
-48 0 -70 13 -27 16 -31 24 -31 59 0 68 38 208 61 226 l21 16 -29 54 -28 54
-1 255 c0 180 3 271 13 308 14 55 17 187 7 240 -5 24 -13 32 -35 37 -20 5 -29
13 -29 26 0 32 19 59 41 59 11 0 22 7 25 15 7 18 43 19 96 3z m-4689 -8 l40 0
-8 -72 c-5 -40 -9 -84 -10 -98 -1 -14 -6 -37 -12 -51 -6 -14 -20 -99 -31 -190
-30 -242 -32 -270 -21 -290 7 -15 6 -21 -6 -25 -10 -4 -15 -20 -15 -53 0 -59
-30 -175 -73 -288 -19 -49 -40 -116 -48 -148 -7 -33 -21 -76 -31 -95 -10 -19
-18 -51 -18 -70 l0 -35 -52 1 -53 2 -5 54 c-3 29 -15 71 -27 93 -12 22 -29 66
-38 98 -30 103 -169 382 -186 372 -4 -3 -12 -33 -17 -67 -6 -35 -18 -105 -27
-156 -9 -51 -23 -112 -31 -135 -8 -23 -19 -63 -24 -89 -18 -90 -60 -121 -109
-80 -29 23 -54 123 -82 328 -24 168 -39 194 -39 67 0 -39 -3 -78 -6 -87 -8
-21 -43 -20 -51 2 -12 33 -58 102 -69 102 -6 0 -17 -7 -24 -15 -7 -8 -16 -15
-21 -15 -14 0 -43 77 -94 243 l-47 158 8 107 9 106 39 8 c28 6 43 5 52 -4 11
-11 30 -100 94 -433 6 -27 14 -70 19 -95 l9 -45 2 65 c2 36 3 139 4 230 1 141
4 170 19 193 11 17 26 27 42 27 43 0 53 -26 105 -285 16 -78 65 -241 77 -255
2 -3 1 94 -2 215 -6 196 4 427 18 442 3 2 19 -5 36 -18 25 -18 33 -20 45 -10
13 11 18 7 31 -24 8 -21 15 -40 15 -42 0 -6 124 -300 158 -373 14 -30 27 -75
30 -100 4 -40 103 -270 116 -270 11 0 55 87 70 139 18 62 42 250 51 401 3 58
15 152 25 210 10 58 23 144 29 193 6 48 16 106 23 128 11 38 14 40 41 35 16
-3 48 -6 70 -6z m1968 -108 c48 -17 110 -43 139 -58 48 -25 85 -32 119 -23 22
7 40 -86 41 -213 l0 -117 -47 -32 c-54 -36 -64 -49 -56 -63 3 -5 1 -6 -4 -3
-6 4 -18 -2 -28 -13 -17 -19 -17 -20 1 -26 49 -16 122 -56 141 -76 12 -13 38
-50 58 -83 35 -57 36 -64 33 -135 -3 -63 -9 -87 -42 -150 -21 -41 -57 -95 -79
-119 -51 -53 -199 -127 -272 -135 -27 -4 -74 -12 -103 -18 -49 -10 -54 -10
-76 11 -21 19 -31 22 -70 16 -35 -6 -47 -4 -50 6 -23 84 -37 224 -46 484 -8
237 -16 334 -37 465 -15 91 -27 194 -27 230 l-1 65 84 7 c46 4 86 10 90 13 14
16 150 -4 232 -33z m-557 -23 c20 -12 36 -23 36 -25 0 -2 -15 -11 -32 -20 -43
-22 -43 -21 -24 -39 23 -24 20 -44 -9 -51 -16 -4 -25 -14 -26 -28 -1 -16 -2
-17 -6 -3 -3 11 -14 17 -35 17 -18 0 -36 -7 -44 -17 -10 -15 -32 -19 -119 -21
l-107 -4 5 -34 c3 -18 2 -36 -3 -39 -9 -5 33 -100 48 -109 5 -3 26 0 48 6 21
5 50 10 64 9 14 0 50 3 80 9 30 5 71 11 90 14 l35 4 -1 -107 0 -106 -32 -3
c-29 -3 -33 0 -38 27 -8 38 -19 38 -124 7 l-75 -22 -3 -65 c-4 -83 9 -119 42
-119 14 0 28 5 31 10 10 16 238 -12 262 -32 15 -12 17 -68 3 -68 -5 0 -10 -20
-10 -45 l0 -45 -82 4 c-100 4 -179 -15 -193 -47 -6 -12 -24 -25 -41 -30 -29
-9 -32 -13 -38 -64 -3 -30 -4 -58 -1 -62 2 -5 27 -11 54 -14 28 -3 65 -14 83
-23 25 -13 55 -17 128 -15 103 2 145 -11 145 -44 0 -11 -10 -24 -22 -31 -13
-6 -21 -13 -18 -15 2 -3 -85 -4 -193 -3 -175 1 -203 3 -252 22 -36 14 -58 18
-64 12 -15 -15 -42 -12 -60 6 -13 13 -24 13 -73 3 -32 -6 -71 -13 -88 -16 -16
-2 -113 -21 -214 -40 l-184 -36 -22 25 c-16 19 -24 45 -29 95 -4 37 -13 111
-21 163 -8 52 -19 133 -25 180 -6 47 -15 106 -19 133 -7 45 -7 47 17 47 20 0
23 4 18 23 -31 111 -44 322 -25 411 3 13 -7 24 -33 38 -21 11 -38 26 -38 34 0
8 -11 24 -25 36 -31 27 -32 38 -2 38 13 0 28 5 35 12 7 7 61 12 149 14 76 2
162 8 192 13 92 19 189 12 234 -15 16 -9 17 -14 6 -38 -15 -32 -96 -77 -126
-70 -11 3 -51 -3 -89 -14 -38 -12 -94 -24 -125 -27 l-55 -7 3 -61 c7 -118 13
-145 33 -150 33 -9 158 11 207 33 58 25 79 25 128 -3 50 -28 66 -73 41 -112
-9 -14 -24 -25 -34 -25 -10 0 -28 -7 -41 -17 -19 -13 -28 -14 -42 -5 -15 10
-27 7 -64 -13 -25 -13 -87 -37 -137 -52 l-91 -28 6 -85 c3 -47 9 -93 12 -102
8 -21 55 -23 124 -7 24 5 48 6 53 1 4 -4 5 -46 1 -93 l-8 -84 -60 -9 c-38 -6
-69 -5 -86 1 -35 14 -40 3 -32 -71 7 -64 15 -68 75 -38 20 11 49 19 65 20 15
0 76 12 134 27 59 14 131 26 160 28 52 2 54 1 57 -26 2 -15 -4 -41 -12 -59 -9
-17 -16 -33 -16 -34 0 -8 116 59 134 77 18 16 20 35 23 171 2 84 4 205 6 269
l3 116 -28 11 c-25 9 -28 15 -28 56 0 27 5 46 11 46 17 0 1 136 -22 189 -23
53 -24 61 -3 61 13 0 12 5 -5 27 -20 25 -20 27 -4 45 17 19 16 20 -6 37 l-24
18 32 6 c21 5 31 12 31 25 0 10 3 22 7 25 3 4 95 7 204 7 183 0 201 -2 233
-21z m1834 -14 c-3 -3 -9 2 -12 12 -6 14 -5 15 5 6 7 -7 10 -15 7 -18z m918 0
c11 -17 19 -60 24 -129 4 -57 10 -108 14 -114 3 -5 17 -67 31 -137 14 -70 33
-154 42 -188 17 -58 17 -59 25 -30 8 32 45 53 94 53 20 0 24 -7 29 -47 4 -27
11 -70 17 -98 15 -73 21 -293 9 -356 -9 -48 -8 -56 9 -69 13 -10 20 -30 22
-59 3 -41 1 -45 -27 -52 -22 -7 -33 -5 -41 6 -13 18 -65 20 -82 3 -7 -7 -12
-20 -12 -31 0 -13 -6 -18 -22 -15 -18 2 -31 22 -61 93 -49 114 -101 273 -124
378 l-17 81 -18 -79 c-10 -44 -36 -136 -57 -205 -22 -69 -42 -137 -45 -152 -4
-16 -17 -32 -33 -40 -15 -7 -30 -24 -33 -37 -7 -30 -64 -52 -132 -52 -41 0
-48 -3 -48 -20 0 -12 -7 -19 -19 -19 -20 0 -30 18 -36 60 -2 14 -20 84 -40
155 -69 252 -103 445 -142 818 -3 32 -10 60 -14 63 -5 3 -9 14 -9 24 0 11 -8
35 -17 55 -17 35 -17 35 13 66 26 28 33 30 74 24 56 -8 84 -36 104 -107 27
-93 32 -159 19 -230 -16 -85 -3 -167 33 -219 23 -34 25 -41 14 -73 -9 -27 -8
-39 2 -55 17 -27 34 -27 42 2 3 12 13 31 21 42 15 19 17 18 60 -29 25 -26 45
-53 45 -59 0 -7 10 -30 21 -52 12 -22 25 -51 30 -65 7 -23 7 -23 8 8 1 19 14
91 30 160 16 70 34 165 40 212 7 47 25 155 41 240 16 85 32 173 36 195 9 58
31 105 48 105 9 0 23 -11 32 -25z m2292 -25 c112 -13 183 -42 238 -98 45 -47
62 -79 74 -144 12 -60 -6 -137 -41 -182 -26 -34 -210 -124 -267 -131 -23 -3
-60 -12 -81 -21 -54 -22 -65 -52 -57 -161 10 -125 14 -143 37 -143 24 0 31
-30 33 -128 l1 -76 -74 -13 c-41 -7 -77 -10 -81 -8 -4 3 -11 35 -14 72 -4 38
-14 104 -22 148 -9 44 -19 136 -24 205 -8 131 -58 432 -88 535 -9 33 -17 64
-17 69 0 11 222 85 258 86 15 0 71 -5 125 -10z m-3628 -45 c0 -38 -4 -36 105
-55 36 -6 65 -17 73 -27 22 -30 42 -114 42 -177 0 -74 -29 -122 -96 -157 l-44
-24 82 -25 c67 -21 86 -31 112 -63 26 -32 31 -47 31 -90 0 -43 -7 -62 -38
-109 -21 -32 -42 -58 -47 -58 -5 0 -37 -24 -72 -53 -107 -90 -209 -143 -343
-177 -65 -17 -122 -33 -126 -36 -4 -2 -26 -1 -49 2 -38 6 -41 9 -37 33 3 14 1
47 -5 73 -10 40 -8 52 9 87 16 33 19 50 13 88 -5 27 -11 164 -14 305 -6 257
-6 257 -31 282 -30 30 -32 46 -5 53 13 4 20 14 20 29 0 40 77 57 145 33 28
-10 40 -7 145 48 63 33 118 58 123 56 4 -2 7 -20 7 -38z m2768 25 c118 -13
244 -54 287 -92 46 -39 52 -52 64 -127 17 -105 -18 -181 -106 -225 -18 -9 -33
-23 -33 -31 0 -20 -20 -19 -36 3 -12 16 -14 16 -28 -3 -16 -22 -13 -23 65 -39
39 -8 120 -66 146 -105 25 -37 30 -98 12 -133 -6 -11 -31 -47 -56 -79 -69 -91
-157 -134 -338 -165 -99 -18 -99 -18 -171 -8 l-50 6 -12 137 c-7 75 -14 186
-17 246 -9 176 -25 290 -62 448 -20 81 -34 150 -32 152 3 2 58 6 124 10 65 3
121 8 124 10 6 7 24 6 119 -5z m-2310 -56 c4 -28 -30 -69 -51 -61 -22 8 -32
53 -16 73 18 22 63 14 67 -12z m5202 -214 c-13 -24 -15 -82 -5 -134 7 -31 5
-38 -6 -34 -7 2 -18 20 -23 38 -6 18 -26 48 -45 66 -30 28 -34 35 -21 44 8 5
25 10 38 10 12 0 30 9 39 19 20 24 37 17 23 -9z m-424 -187 c36 -83 32 -91
-56 -123 -41 -14 -85 -32 -97 -38 -34 -19 -43 -15 -59 26 -8 20 -20 47 -26 60
-9 18 -9 26 5 39 20 20 166 91 190 92 12 1 25 -17 43 -56z m-378 -116 c-1 -12
5 -38 14 -57 9 -19 18 -52 20 -74 3 -38 3 -39 -48 -56 -27 -10 -65 -25 -83
-35 -18 -9 -37 -13 -42 -8 -9 9 -49 150 -49 174 0 12 24 26 83 47 103 37 109
38 105 9z m-6731 -19 c-3 -8 -6 -5 -6 6 -1 11 2 17 5 13 3 -3 4 -12 1 -19z
m-157 -52 c0 -33 -88 -102 -106 -83 -9 9 -21 71 -17 85 7 18 123 17 123 -2z
m6434 -232 c18 -18 21 -76 6 -105 -16 -29 -57 -24 -78 10 -16 27 -19 28 -42
15 -33 -18 -66 -18 -73 0 -9 22 14 34 60 31 35 -2 43 1 54 23 11 20 26 31 56
41 1 1 9 -6 17 -15z m-237 -76 c-3 -8 -6 -5 -6 6 -1 11 2 17 5 13 3 -3 4 -12
1 -19z m-17 -8 c0 -12 -43 -30 -71 -30 -12 0 -19 5 -17 13 4 10 18 15 81 26 4
0 7 -4 7 -9z m-140 -25 c0 -18 -26 -29 -88 -39 -38 -6 -43 -4 -40 11 3 16 55
34 121 42 4 1 7 -6 7 -14z m-185 -40 c0 -13 -9 -18 -38 -20 -40 -2 -60 11 -30
21 10 3 25 9 33 14 21 12 35 6 35 -15z m1774 -7 c5 -18 14 -58 20 -88 14 -78
58 -284 71 -328 5 -20 6 -40 2 -44 -4 -4 -88 -19 -187 -32 -99 -14 -199 -28
-221 -31 -34 -5 -42 -3 -47 12 -3 10 -26 77 -52 148 -77 217 -115 333 -115
355 0 19 1 20 23 5 13 -8 27 -12 30 -8 4 3 37 7 74 8 80 3 316 25 322 31 2 2
19 4 37 4 28 0 34 -5 43 -32z m-9297 -10 c-12 -12 -35 -1 -27 12 3 5 13 6 21
3 10 -4 12 -9 6 -15z m6817 -11 c20 -25 24 -72 7 -86 -13 -11 -21 -10 -48 6
-35 20 -47 55 -28 79 16 18 54 18 69 1z m571 5 c0 -10 -45 -32 -65 -32 -8 0
-15 9 -15 20 0 17 7 20 40 20 22 0 40 -4 40 -8z m-449 -123 c26 -18 40 -49 22
-49 -5 0 -28 14 -52 30 -24 17 -48 30 -53 30 -4 0 -8 5 -8 11 0 17 56 3 91
-22z m-4472 -8 c22 -14 5 -60 -24 -67 -36 -9 -58 12 -43 40 18 35 40 44 67 27z
m-619 -21 c12 -8 9 -10 -12 -10 -16 0 -28 5 -28 10 0 13 20 13 40 0z m3745 -9
c6 -11 -33 -36 -42 -27 -3 3 -3 12 0 21 7 17 33 20 42 6z m1479 -63 c36 -41
46 -68 25 -68 -5 0 -7 5 -4 10 3 6 -3 10 -14 10 -21 0 -71 53 -71 76 0 26 28
14 64 -28z m-4686 0 c2 -10 -9 -21 -28 -29 -17 -8 -40 -29 -50 -47 -23 -37
-46 -50 -63 -33 -9 9 3 26 53 72 64 59 82 66 88 37z m-1836 -3 c1 -6 -23 -25
-53 -43 -38 -22 -57 -41 -63 -62 -8 -28 -11 -29 -48 -24 -21 4 -38 3 -37 -2 4
-22 -3 -33 -33 -53 l-33 -20 -6 22 c-4 15 2 29 18 45 13 12 28 22 34 22 5 0
17 4 27 10 9 5 29 14 45 20 15 5 31 20 36 33 5 14 29 34 53 46 44 21 59 23 60
6z m4349 5 c22 12 64 -2 73 -25 16 -44 7 -61 -39 -73 -63 -17 -63 -17 -61 36
2 26 -2 54 -8 62 -8 12 -7 13 4 3 9 -8 19 -9 31 -3z m-1796 -56 c6 -16 17 -36
26 -44 25 -22 33 -69 14 -76 -23 -9 -45 15 -45 50 0 20 -7 36 -20 44 -20 12
-27 42 -13 56 12 12 28 0 38 -30z m4086 5 c8 -16 8 -32 -1 -65 -12 -42 -12
-44 19 -70 20 -16 31 -35 31 -52 l0 -25 -26 24 c-14 13 -32 35 -39 49 -7 14
-29 42 -49 63 -35 37 -35 38 -16 57 11 11 20 25 20 30 0 19 49 10 61 -11z
m102 8 c8 -23 -9 -41 -29 -32 -22 9 -30 12 -44 14 -5 0 -10 8 -10 16 0 20 76
21 83 2z m-2863 -16 c20 -38 9 -48 -66 -67 -24 -6 -25 -4 -22 27 2 24 10 37
28 46 35 18 48 16 60 -6z m3072 -15 c16 -25 5 -28 -77 -24 -91 5 -101 8 -91
34 5 14 17 15 84 9 42 -4 80 -12 84 -19z m109 0 c27 -6 45 -41 27 -52 -5 -3
-29 -3 -53 1 -32 4 -46 12 -51 27 -7 23 11 40 36 34 8 -2 27 -7 41 -10z m194
-22 c56 -6 65 -10 65 -34 0 -20 -4 -21 -62 -14 -35 4 -71 11 -80 15 -9 5 -23
8 -30 7 -7 -2 -14 8 -16 21 -4 23 -2 24 40 16 23 -4 61 -9 83 -11z m-3495 -30
c0 -19 -63 -46 -99 -42 -26 3 -26 3 14 31 44 30 85 36 85 11z m3678 9 c38 -4
56 -11 63 -26 17 -30 -1 -36 -76 -23 -61 10 -70 14 -73 34 -4 25 1 26 86 15z
m-240 -51 c5 -17 -13 -15 -28 3 -7 8 -17 12 -23 8 -6 -3 -7 -1 -3 5 8 13 48 1
54 -16z m470 7 c23 -9 26 -17 14 -36 -6 -9 -20 -8 -62 4 -62 17 -75 26 -65 43
7 12 68 6 113 -11z m-6031 -22 c-6 -16 -107 -71 -107 -59 0 16 34 55 63 73 33
19 54 12 44 -14z m1977 16 c11 -29 -19 -47 -79 -48 -30 0 -56 4 -57 9 -3 9 94
55 118 56 7 0 15 -8 18 -17z m-3894 -23 c0 -11 -5 -20 -11 -20 -6 0 -22 -9
-36 -20 -26 -20 -63 -27 -63 -12 0 12 29 36 65 55 39 21 45 21 45 -3z m4630 4
c0 -8 -4 -14 -8 -14 -5 0 -17 6 -27 14 -18 13 -17 14 8 14 16 0 27 -6 27 -14z
m3445 -7 c22 -17 12 -37 -19 -37 -29 0 -61 24 -52 38 10 16 48 15 71 -1z
m-3342 -18 c4 -15 1 -19 -11 -17 -21 4 -29 38 -9 38 8 0 17 -9 20 -21z m-984
-2 c15 -19 4 -27 -41 -27 -21 0 -38 -4 -38 -8 0 -13 -98 -30 -109 -19 -22 22
1 37 59 37 39 0 62 5 70 15 15 19 44 19 59 2z m2958 -3 c4 -10 0 -20 -10 -26
-15 -8 -15 -12 -3 -31 23 -37 29 -82 12 -96 -46 -39 -144 109 -101 153 22 22
93 22 102 0z m1487 10 c19 -7 21 -34 4 -35 -46 -4 -98 13 -98 31 0 11 69 14
94 4z m-5246 -76 c16 -40 32 -81 35 -91 6 -15 13 -17 43 -11 31 6 36 4 32 -12
-4 -25 -62 -41 -83 -24 -8 7 -15 18 -15 25 0 8 -16 44 -35 81 -37 71 -44 104
-21 104 8 0 27 -31 44 -72z m3620 48 c15 -15 6 -46 -14 -46 -8 0 -14 -7 -14
-16 0 -10 6 -14 14 -11 10 4 17 -4 21 -25 8 -35 -7 -57 -27 -41 -7 6 -27 15
-45 21 -27 9 -34 7 -54 -14 -15 -16 -34 -24 -55 -24 -38 0 -55 22 -47 61 3 15
0 30 -6 33 -6 4 -11 21 -11 37 0 29 1 30 43 27 39 -3 44 -6 69 -53 30 -55 34
-53 16 8 -10 35 -10 41 6 52 20 15 84 9 104 -9z m1755 9 c38 -6 42 -11 28 -34
-6 -10 -13 -11 -29 -2 -11 6 -32 11 -46 11 -14 0 -28 5 -31 10 -9 15 5 31 23
26 10 -2 34 -7 55 -11z m295 -17 c19 -19 15 -66 -7 -78 -26 -13 -27 -13 -51
12 -20 21 -27 58 -13 71 11 11 58 8 71 -5z m-8770 -20 c3 -17 -55 -58 -82 -58
-30 0 -17 36 22 58 41 24 55 24 60 0z m4945 -16 c11 -18 17 -36 13 -39 -11
-11 -61 33 -64 56 -5 34 28 23 51 -17z m1337 17 c6 -11 8 -33 5 -50 -9 -40 1
-36 24 10 25 48 70 68 110 48 35 -16 40 -69 11 -115 -20 -32 -23 -34 -68 -30
-26 3 -55 8 -64 12 -14 6 -18 3 -18 -13 0 -28 -25 -27 -44 1 -11 15 -16 45
-16 90 0 66 1 68 25 68 14 0 29 -8 35 -21z m-4350 -18 c0 -22 -19 -41 -42 -41
-24 0 -23 19 3 47 24 24 39 22 39 -6z m1750 15 c0 -16 -69 -46 -106 -46 -33 0
-29 29 6 47 35 18 100 17 100 -1z m4953 -14 c27 -24 5 -36 -37 -18 -35 15 -43
26 -29 39 9 10 44 -2 66 -21z m-2638 9 c8 -14 -24 -93 -46 -113 -11 -9 -19
-21 -19 -27 0 -23 -31 -23 -55 -1 -16 15 -39 23 -69 25 -41 2 -47 0 -52 -21
-3 -13 -10 -24 -14 -24 -5 0 -15 -3 -24 -6 -27 -10 -66 40 -66 84 0 49 7 56
38 36 22 -14 25 -14 43 2 18 16 20 16 43 -9 31 -34 36 -34 71 3 32 34 55 39
55 13 0 -16 3 -15 18 3 16 21 50 43 64 44 4 0 9 -4 13 -9z m199 -17 c10 -10
16 -33 16 -64 0 -57 -18 -73 -78 -68 -65 5 -108 99 -60 132 29 21 102 21 122
0z m1014 -24 c26 -38 28 -60 7 -60 -18 0 -55 56 -55 83 0 26 21 16 48 -23z
m-3691 5 c6 -21 -14 -33 -57 -35 -63 -3 -72 -2 -68 12 9 27 117 47 125 23z
m-3642 -20 c0 -19 -62 -58 -77 -48 -12 7 52 75 67 70 5 -2 10 -12 10 -22z
m1734 -45 l24 -12 -24 -20 c-18 -15 -19 -18 -6 -14 81 26 117 13 149 -53 39
-78 22 -229 -32 -286 -39 -41 -212 -84 -285 -71 l-38 7 6 49 c5 40 2 53 -19
81 -28 38 -30 65 -9 116 20 49 19 54 -10 41 -37 -17 -50 0 -36 45 15 46 40 67
93 78 67 15 88 34 88 75 l0 36 38 -30 c20 -16 48 -35 61 -42z m3831 26 c0 -19
7 -41 15 -50 18 -17 20 -57 4 -73 -17 -17 -67 11 -73 40 -19 88 -12 117 31
117 20 0 23 -5 23 -34z m172 17 c27 -24 24 -84 -6 -112 -27 -25 -59 -24 -103
5 -30 19 -31 76 -3 104 25 25 86 27 112 3z m-3764 -26 c-16 -32 -51 -81 -63
-89 -5 -4 -17 -1 -25 7 -12 13 -8 21 35 65 49 49 75 58 53 17z m1512 7 c0 -17
-65 -48 -86 -40 -28 11 -14 35 24 41 20 4 42 8 47 10 6 2 11 4 13 4 1 1 2 -6
2 -15z m1654 -44 c22 -40 24 -50 12 -50 -9 0 -16 6 -16 14 0 8 -11 23 -25 34
-27 21 -34 52 -12 52 8 0 26 -22 41 -50z m-230 12 c-1 -7 -2 -21 -2 -32 -2
-24 -17 -26 -26 -4 -9 23 3 56 17 51 7 -2 12 -9 11 -15z m-4274 -2 c44 -23 28
-120 -22 -134 -41 -10 -49 -7 -64 30 -16 37 -12 77 8 101 13 15 52 17 78 3z
m-760 -8 c0 -21 -73 -64 -95 -56 -26 10 -17 24 28 44 46 21 67 25 67 12z
m7570 -71 c37 -62 45 -101 19 -101 -14 0 -100 142 -95 156 11 30 37 11 76 -55z
m-4220 25 c0 -8 -20 -19 -44 -25 -58 -14 -66 -14 -66 4 0 9 19 20 48 28 50 15
62 14 62 -7z m-3816 -19 c31 -40 42 -88 28 -114 -9 -15 -15 -9 -41 49 -32 70
-38 98 -22 98 6 0 21 -15 35 -33z m5498 -88 c-3 -94 -9 -122 -23 -114 -20 13
-6 209 15 202 7 -2 9 -34 8 -88z m-5172 68 c0 -6 -22 -22 -49 -35 -60 -27 -65
-27 -51 -2 19 36 100 67 100 37z m3354 -5 c11 -18 -13 -33 -62 -39 -34 -4 -52
-2 -52 5 0 14 16 23 54 33 43 10 54 10 60 1z m1444 -79 l-3 -78 -57 -3 c-56
-3 -58 -2 -78 30 -39 65 -17 107 58 109 15 0 36 4 47 9 34 15 36 12 33 -67z
m689 42 c9 -19 14 -38 10 -41 -12 -12 -47 28 -47 53 0 34 18 28 37 -12z
m-1094 4 c28 -13 47 -48 47 -88 0 -43 -21 -62 -72 -68 -38 -4 -52 -1 -74 16
l-27 21 -38 -34 c-42 -38 -70 -39 -94 -2 -32 50 -26 138 11 153 24 9 35 -16
32 -74 -4 -65 7 -60 15 7 3 28 9 55 12 60 10 16 43 12 53 -6 8 -14 12 -13 43
5 39 24 58 26 92 10z m228 -12 c9 -19 7 -30 -9 -57 -19 -30 -19 -35 -5 -56 15
-23 15 -24 -16 -24 -18 0 -43 7 -56 16 -24 16 -25 15 -25 -6 0 -16 -5 -21 -22
-18 -20 3 -25 12 -35 73 -7 39 -10 76 -8 83 3 8 29 12 85 12 75 0 81 -2 91
-23z m-1421 -6 c0 -15 -12 -23 -47 -34 -77 -22 -85 12 -10 40 46 17 57 15 57
-6z m386 -63 c-4 -28 -9 -55 -12 -60 -7 -12 -32 -10 -40 3 -8 13 36 109 50
109 5 0 5 -23 2 -52z m-3787 16 l32 -16 -23 -25 c-13 -14 -39 -33 -60 -44 -31
-16 -38 -16 -48 -4 -16 20 -4 49 31 80 36 30 29 29 68 9z m3238 -1 c5 -14 -95
-66 -113 -59 -27 10 -14 27 39 51 54 25 68 26 74 8z m4773 -35 c14 -26 43 -71
65 -101 l40 -55 70 49 c99 70 158 80 287 50 82 -19 103 -28 154 -69 81 -66
113 -121 125 -217 13 -101 -1 -166 -50 -242 -80 -124 -180 -178 -316 -171
-141 7 -248 78 -316 208 -33 62 -34 206 -2 295 l22 60 -30 53 c-17 28 -34 52
-38 52 -4 0 -18 19 -31 43 -12 23 -29 50 -37 59 -8 9 -12 22 -8 28 13 22 40 4
65 -42z m-7574 27 c4 -11 16 -13 48 -9 30 5 45 2 54 -9 21 -25 -7 -39 -53 -26
-28 8 -40 8 -45 -1 -9 -14 -82 -9 -87 7 -5 15 36 53 59 53 10 0 21 -7 24 -15z
m224 -19 c0 -24 -62 -37 -76 -15 -9 15 14 29 49 29 16 0 27 -5 27 -14z m100 4
c0 -5 -19 -10 -42 -9 -33 0 -38 2 -23 9 28 12 65 12 65 0z m236 -25 c4 -8 3
-27 0 -41 -7 -25 -8 -26 -26 -9 -23 21 -25 36 -8 53 16 16 27 15 34 -3z m4764
-17 c24 -39 25 -58 5 -58 -18 0 -35 31 -35 64 0 34 6 33 30 -6z m-4683 0 c31
-29 29 -38 -8 -28 -39 12 -43 15 -36 35 8 20 16 19 44 -7z m1993 -3 c0 -16
-32 -32 -82 -42 -42 -8 -34 12 15 36 50 25 67 26 67 6z m2960 -4 c14 -28 13
-31 -14 -31 -30 0 -42 16 -26 35 17 20 27 19 40 -4z m-3164 -83 c-68 -17 -96
-13 -82 11 4 6 17 11 29 12 12 0 42 8 67 18 45 19 45 19 51 -3 5 -19 -2 -23
-65 -38z m2499 29 c10 -52 2 -102 -15 -102 -11 0 -16 13 -18 44 -6 81 20 127
33 58z m-5483 11 c4 -11 -36 -135 -46 -146 -3 -2 -9 -1 -15 3 -17 10 -13 52
10 106 21 47 43 63 51 37z m3869 -64 c-25 -55 -43 -6 -20 53 l11 28 10 -28 c7
-20 7 -36 -1 -53z m-1841 56 c0 -5 -4 -10 -10 -10 -5 0 -10 5 -10 10 0 6 5 10
10 10 6 0 10 -4 10 -10z m-942 -38 c2 -23 -2 -34 -13 -39 -19 -7 -35 13 -29
34 2 7 6 20 9 29 8 26 30 10 33 -24z m212 14 c14 -16 20 -31 16 -42 -6 -16 -8
-16 -25 2 -22 22 -37 64 -23 64 4 0 19 -11 32 -24z m1289 -28 c22 -38 2 -78
-38 -78 -37 0 -61 23 -61 60 0 54 72 67 99 18z m271 -8 c0 -9 -79 -40 -103
-40 -30 0 -19 15 31 42 33 18 51 23 60 16 6 -6 12 -14 12 -18z m-2520 5 c7 -8
9 -22 5 -32 -4 -10 -9 -37 -11 -60 -3 -39 -1 -42 15 -31 23 14 67 3 89 -23 9
-11 67 -62 127 -112 61 -51 130 -110 155 -133 25 -23 72 -64 105 -90 33 -27
63 -53 67 -58 4 -6 11 -7 15 -2 4 5 2 11 -5 13 -7 3 -17 13 -23 24 -8 16 -2
30 36 79 70 91 136 133 135 87 0 -7 -27 -48 -60 -92 -56 -76 -58 -81 -39 -89
18 -8 20 -16 14 -52 -6 -42 -5 -43 41 -74 27 -19 52 -47 60 -66 8 -19 20 -34
28 -34 7 0 21 -9 32 -21 19 -21 18 -21 -5 -40 -26 -21 -55 -13 -66 20 -7 24
-93 91 -115 91 -9 0 -25 9 -35 20 -11 13 -31 20 -52 20 -29 0 -36 5 -48 34
-14 32 -110 125 -144 137 -23 9 -88 -14 -117 -42 -13 -12 -26 -20 -29 -17 -9
9 56 90 76 95 19 5 27 23 11 23 -5 0 -35 23 -68 52 -32 28 -80 67 -106 85 -26
19 -57 49 -68 68 -11 19 -43 50 -70 69 l-50 36 0 58 c0 32 3 62 7 65 12 13 81
7 93 -8z m6033 -7 c36 -25 47 -37 47 -55 0 -16 -71 4 -87 25 -16 20 -17 52 -2
52 6 0 25 -10 42 -22z m-415 -34 c13 -26 21 -49 18 -51 -12 -12 -44 10 -49 35
-3 15 -9 35 -12 45 -5 11 -2 17 7 17 8 0 24 -21 36 -46z m-4565 -23 c30 -43
34 -61 14 -61 -22 0 -80 67 -74 84 10 26 30 18 60 -23z m-338 -48 c-10 -93
-13 -103 -36 -103 -20 0 -21 4 -14 38 4 20 9 51 12 67 7 47 11 55 28 55 14 0
15 -9 10 -57z m1604 22 c29 -15 55 -35 60 -48 15 -39 -7 -41 -42 -3 -19 20
-44 36 -56 36 -14 0 -21 6 -21 20 0 25 -4 25 59 -5z m1191 -19 c0 -25 -4 -48
-10 -51 -5 -3 -10 -25 -10 -48 0 -24 -6 -52 -14 -63 -12 -17 -12 -22 0 -39 17
-23 18 -66 2 -87 -17 -21 -75 -29 -89 -12 -13 16 22 101 45 110 11 4 16 20 16
50 0 24 4 53 9 66 6 13 13 44 16 71 4 31 11 47 21 47 10 0 14 -12 14 -44z
m2676 14 c42 -30 58 -60 31 -60 -7 0 -36 12 -65 26 -35 18 -52 32 -52 45 0 28
34 24 86 -11z m-1046 -57 c0 -91 -7 -123 -26 -123 -11 0 -14 19 -14 84 0 93 5
116 26 116 11 0 14 -18 14 -77z m-4003 -5 c13 -12 23 -25 23 -29 0 -4 16 -23
35 -42 42 -42 49 -86 9 -59 -23 15 -114 126 -114 139 0 20 21 16 47 -9z m5163
5 c29 -19 173 -135 180 -144 11 -14 155 -14 189 0 26 11 40 12 64 3 16 -6 34
-9 38 -6 5 3 6 -2 3 -10 -5 -14 30 -86 42 -86 16 0 44 39 38 53 -7 18 69 97
93 97 7 0 23 -15 34 -32 17 -28 20 -44 16 -104 -3 -45 -13 -87 -27 -114 -12
-23 -19 -49 -16 -57 22 -57 -204 -243 -297 -243 -15 0 -44 7 -64 15 -19 8 -37
15 -38 15 -1 0 -5 -18 -9 -40 -5 -32 -11 -41 -33 -46 -58 -15 -83 44 -60 136
12 44 19 56 38 60 13 3 24 11 25 18 3 33 5 40 25 61 l21 23 -37 53 c-28 42
-34 58 -27 71 8 15 -3 31 -66 92 -43 41 -103 97 -134 125 -32 27 -58 56 -58
63 0 19 31 17 60 -3z m-3844 -44 c34 -20 61 -56 51 -66 -17 -16 -115 57 -102
77 9 14 13 13 51 -11z m3269 -34 c32 -31 32 -58 -1 -84 -34 -26 -41 -26 -65 2
-21 26 -23 46 -7 82 14 32 42 32 73 0z m3398 -34 c25 -11 77 -42 115 -70 38
-28 80 -51 93 -51 18 0 20 3 11 12 -7 7 -12 20 -12 29 0 17 72 89 90 89 5 0
19 -18 30 -40 13 -26 25 -37 35 -34 18 7 55 -51 55 -88 0 -20 -9 -32 -37 -49
-51 -31 -50 -29 -29 -45 27 -20 40 -18 74 11 37 31 59 32 73 2 22 -49 -27
-154 -88 -190 -41 -24 -117 -35 -165 -25 -21 4 -100 35 -177 68 -145 62 -175
70 -184 46 -4 -11 -87 -56 -102 -56 -9 0 -11 64 -4 124 6 46 20 92 39 130 32
63 37 91 18 99 -7 3 -4 6 7 6 11 1 34 12 50 26 37 30 51 30 108 6z m-6516 -26
c39 -30 42 -45 10 -45 -23 0 -97 44 -97 58 0 19 56 10 87 -13z m1938 -21 c93
-46 156 -133 174 -240 24 -155 -51 -292 -195 -356 -39 -17 -62 -20 -130 -16
-109 6 -197 47 -254 119 -50 63 -64 107 -64 199 0 86 27 155 90 228 87 102
248 130 379 66z m-3249 -21 c25 -30 31 -58 14 -68 -15 -9 -39 13 -54 49 -22
53 2 63 40 19z m3554 -12 c0 -14 -52 -23 -64 -11 -17 18 21 42 45 29 11 -5 19
-14 19 -18z m324 -3 c8 -14 4 -23 -21 -48 -26 -26 -35 -29 -52 -21 -10 6 -33
8 -49 5 -34 -7 -50 9 -31 32 8 10 21 13 42 8 21 -4 27 -3 22 5 -4 7 -4 19 -1
27 8 21 75 15 90 -8z m-2471 -26 c38 -14 127 -96 127 -117 0 -21 -5 -19 -63
25 -29 21 -70 46 -91 55 -29 12 -36 20 -34 38 4 26 22 42 26 24 1 -7 17 -18
35 -25z m2157 4 c0 -11 -19 -15 -25 -6 -3 5 1 10 9 10 9 0 16 -2 16 -4z m85
-6 c4 -6 -8 -10 -29 -10 -20 0 -36 5 -36 10 0 6 13 10 29 10 17 0 33 -4 36
-10z m-3531 -66 c29 -28 -17 -84 -53 -64 -25 13 -27 42 -5 64 20 20 38 20 58
0z m-1667 -81 c5 -35 2 -42 -27 -66 -50 -43 -67 -33 -76 46 -8 68 5 75 31 17
23 -52 35 -51 35 3 0 73 27 73 37 0z m3175 30 c34 -33 35 -43 3 -43 -24 0 -45
25 -45 54 0 23 10 20 42 -11z m-1077 -89 c33 -8 119 -25 190 -39 72 -14 142
-28 158 -31 23 -5 27 -3 27 15 0 11 -5 21 -11 21 -6 0 -9 10 -7 23 2 18 9 22
38 20 19 -1 47 -3 62 -3 39 -2 51 -45 19 -70 l-23 -16 26 -31 c28 -33 35 -89
16 -137 -5 -15 -14 -52 -19 -84 -5 -31 -19 -83 -31 -116 l-22 -58 -52 5 c-28
3 -98 14 -156 25 -58 12 -168 33 -245 47 -77 14 -148 28 -157 31 -23 7 -23 41
-1 159 16 91 17 104 11 140 -2 14 2 19 15 17 17 -3 18 0 21 52 2 34 33 60 61
50 11 -3 47 -12 80 -20z m3784 -76 c31 -34 81 -88 111 -120 l55 -57 46 11 c38
9 51 8 75 -5 16 -9 37 -19 46 -23 9 -3 24 -24 33 -46 40 -102 -67 -224 -167
-189 -52 18 -124 79 -210 176 -103 118 -142 186 -134 235 6 37 45 80 73 80 9
0 41 -28 72 -62z m-2669 27 c11 -13 10 -14 -4 -9 -9 3 -16 10 -16 15 0 13 6
11 20 -6z m-3146 -47 c10 -48 13 -158 5 -163 -17 -11 -29 36 -29 109 0 72 14
103 24 54z m71 -42 c5 -28 2 -55 -9 -79 -16 -40 -43 -53 -30 -14 5 12 8 53 7
90 -1 57 1 66 12 57 8 -7 17 -31 20 -54z m417 26 c6 -23 16 -33 36 -38 53 -11
59 -15 37 -24 -11 -5 -37 -9 -57 -9 -34 -1 -40 -5 -59 -43 -20 -39 -22 -41
-35 -23 -19 26 -18 45 7 101 35 83 56 94 71 36z m-565 -114 c-2 -18 -4 -4 -4
32 0 36 2 50 4 33 2 -18 2 -48 0 -65z m-38 -25 c1 -7 -3 -13 -9 -13 -5 0 -10
15 -9 33 0 27 2 29 9 12 5 -11 9 -26 9 -32z"/>
<path d="M8250 4709 c-86 -47 -85 -43 -43 -142 20 -48 41 -87 47 -87 17 0 139
59 159 77 26 24 21 49 -24 119 -49 75 -59 77 -139 33z"/>
<path d="M4942 4727 l-123 -31 6 -35 c11 -65 13 -68 46 -63 23 3 29 9 27 24
-3 24 6 30 85 52 62 18 77 15 77 -14 0 -10 10 -26 22 -35 22 -14 23 -14 31 9
11 32 -13 120 -33 123 -8 1 -70 -12 -138 -30z"/>
<path d="M5176 4575 c-4 -13 -2 -14 14 -5 23 13 26 20 6 20 -8 0 -16 -7 -20
-15z"/>
<path d="M5115 4514 c-22 -9 -78 -26 -125 -38 -90 -25 -91 -26 -70 -82 12 -31
40 -31 108 1 l52 24 0 -29 c0 -16 5 -32 10 -35 6 -4 10 7 10 25 0 31 7 37 82
63 15 5 16 10 4 43 -7 21 -17 39 -22 40 -5 1 -27 -4 -49 -12z"/>
<path d="M6363 4570 c-78 -39 -87 -50 -72 -84 34 -73 179 -26 179 58 0 25 -6
38 -19 46 -25 13 -19 15 -88 -20z"/>
<path d="M9583 4653 l-71 -4 18 -65 c10 -36 22 -70 27 -75 6 -6 32 -7 62 -3
55 7 60 12 115 107 l27 47 -53 -2 c-29 -1 -85 -4 -125 -5z"/>
<path d="M9797 4628 c-9 -18 -34 -66 -56 -106 -26 -48 -35 -75 -28 -78 7 -2
59 -1 117 3 l105 8 -2 30 c-2 28 -89 165 -110 172 -5 2 -17 -11 -26 -29z"/>
<path d="M9575 4450 c-8 -13 39 -34 59 -27 9 4 16 13 16 22 0 17 -65 22 -75 5z"/>
<path d="M3253 4162 c-79 -40 -202 -135 -229 -177 -23 -36 -22 -84 2 -102 27
-20 119 -11 175 17 60 31 166 107 184 133 8 12 15 36 15 55 0 38 -24 102 -39
102 -5 0 -15 2 -23 5 -7 2 -46 -13 -85 -33z"/>
<path d="M3280 3825 c-41 -15 -41 -15 6 -115 39 -83 78 -130 107 -130 23 0
117 69 117 86 0 18 -66 72 -116 97 -24 11 -46 29 -49 38 -10 31 -28 37 -65 24z"/>
<path d="M2080 3972 c-53 -26 -53 -89 0 -75 25 7 47 33 55 66 9 33 -4 35 -55
9z"/>
<path d="M1695 3962 c-13 -13 -4 -42 13 -42 18 0 42 18 42 31 0 8 -48 18 -55
11z"/>
<path d="M1152 3910 c-65 -40 -68 -107 -3 -81 37 16 58 38 66 74 6 22 4 27
-11 27 -11 0 -34 -9 -52 -20z"/>
<path d="M1011 3910 c-34 -8 -36 -24 -6 -38 28 -13 33 -39 10 -48 -8 -4 -15
-13 -15 -22 0 -25 38 15 45 47 9 42 -5 68 -34 61z"/>
<path d="M8882 3633 c-12 -2 -20 -8 -18 -12 6 -10 86 -1 86 10 0 9 -26 10 -68
2z"/>
<path d="M8900 3549 c0 -17 5 -20 37 -17 27 2 39 8 41 21 3 14 -4 17 -37 17
-35 0 -41 -3 -41 -21z"/>
<path d="M8927 3373 c-17 -16 -3 -24 40 -21 62 4 71 28 11 28 -25 0 -48 -3
-51 -7z"/>
<path d="M8930 3285 c0 -11 12 -15 45 -15 33 0 45 4 45 15 0 11 -12 15 -45 15
-33 0 -45 -4 -45 -15z"/>
<path d="M6288 2838 c-5 -9 -12 -378 -6 -378 3 0 21 12 39 27 l32 27 -6 92
c-9 135 -40 260 -59 232z"/>
<path d="M3323 3131 c-7 -22 -13 -48 -13 -58 0 -9 -7 -24 -16 -34 -15 -16 -15
-24 1 -96 28 -123 29 -126 61 -135 44 -13 108 0 132 25 26 27 55 94 47 107 -4
6 -14 10 -23 10 -11 0 -13 3 -5 11 8 8 28 6 73 -5 34 -9 75 -16 91 -16 29 0
39 13 19 25 -17 10 -12 75 5 75 18 0 35 -38 36 -83 0 -18 3 -26 6 -19 3 7 2
33 -1 57 -7 47 -22 57 -98 70 -21 3 -86 26 -145 52 -151 63 -155 64 -170 14z"/>
<path d="M3414 2562 c0 -26 -9 -73 -19 -104 -14 -48 -17 -80 -13 -183 3 -69 8
-128 11 -131 4 -4 37 1 74 10 154 39 314 149 328 228 12 62 -4 90 -63 112 -29
10 -52 25 -52 32 0 8 -7 14 -15 14 -8 0 -34 8 -57 19 -64 28 -140 51 -168 51
-23 0 -25 -4 -26 -48z"/>
<path d="M2690 2360 c0 -14 7 -20 21 -20 11 0 32 9 46 20 l26 20 -47 0 c-39 0
-46 -3 -46 -20z"/>
<path d="M5750 2596 c0 -26 42 -187 48 -182 4 5 -36 187 -44 195 -2 2 -4 -3
-4 -13z"/>
<path d="M5301 2340 l2 -75 9 63 c7 45 7 67 -1 75 -8 8 -11 -9 -10 -63z"/>
<path d="M5801 2384 c0 -11 3 -14 6 -6 3 7 2 16 -1 19 -3 4 -6 -2 -5 -13z"/>
<path d="M5811 2344 c0 -11 3 -14 6 -6 3 7 2 16 -1 19 -3 4 -6 -2 -5 -13z"/>
<path d="M7943 3007 l-78 -53 3 -75 c1 -41 5 -88 7 -105 l5 -30 58 7 c132 16
164 37 197 129 14 39 13 45 -7 91 -22 53 -59 89 -89 89 -10 0 -53 -24 -96 -53z"/>
<path d="M4345 2975 c-5 -2 -43 -13 -82 -25 -70 -22 -73 -24 -73 -54 0 -17
-11 -48 -25 -68 -31 -46 -34 -88 -5 -88 12 0 31 7 44 15 19 12 25 13 40 2 15
-11 32 -11 92 -1 86 15 103 23 139 66 23 28 27 39 23 80 -7 67 -19 78 -87 77
-31 0 -60 -2 -66 -4z"/>
<path d="M4223 2628 c-28 -9 -33 -16 -39 -55 -4 -25 -4 -67 -1 -95 8 -63 -20
-129 -68 -158 -28 -17 -45 -38 -45 -56 0 -17 202 15 265 41 54 23 212 132 219
151 8 21 -1 33 -31 45 -22 8 -24 13 -18 47 6 37 6 37 -50 65 -46 22 -68 27
-128 26 -39 -1 -86 -6 -104 -11z m222 -237 c-3 -6 -11 -11 -17 -11 -6 0 -6 6
2 15 14 17 26 13 15 -4z"/>
<path d="M7120 3024 c-19 -2 -59 -9 -87 -16 l-53 -11 0 -71 c0 -75 23 -203 39
-219 31 -31 297 78 329 134 10 16 22 29 28 29 15 0 24 35 16 63 -19 64 -65 90
-162 93 -41 1 -91 0 -110 -2z"/>
<path d="M7067 2570 c-49 -26 -50 -30 -49 -115 0 -16 1 -60 1 -97 l1 -68 46 0
c69 0 170 34 241 80 69 44 83 63 83 110 0 72 -25 87 -169 104 -108 12 -108 12
-154 -14z"/>
<path d="M9510 2697 c-65 -32 -81 -55 -61 -86 7 -11 20 -10 77 10 38 13 71 25
72 26 7 3 -10 83 -16 83 -4 -1 -36 -15 -72 -33z"/>
<path d="M9153 2550 c-24 -10 -43 -24 -43 -30 0 -22 23 -100 30 -105 5 -3 29
4 54 15 46 19 60 45 31 56 -10 4 -15 20 -15 45 0 21 -3 39 -7 39 -5 0 -27 -9
-50 -20z"/>
<path d="M9719 2083 c-1 -5 -2 -12 -3 -18 0 -5 -10 -23 -20 -38 -16 -24 -17
-31 -6 -52 11 -20 10 -31 -4 -67 -20 -54 -21 -88 -1 -88 8 0 19 17 26 43 16
54 25 66 49 60 11 -3 31 4 46 16 34 27 61 27 69 0 4 -11 12 -18 18 -15 7 3 20
9 30 12 27 10 21 52 -13 84 -16 15 -30 37 -30 49 0 20 -5 21 -80 21 -44 0 -81
-3 -81 -7z"/>
<path d="M9780 1775 c0 -2 10 -25 22 -51 22 -43 25 -46 57 -40 41 6 39 3 47
54 l7 42 -67 0 c-36 0 -66 -2 -66 -5z"/>
<path d="M7600 1580 c20 -13 33 -13 25 0 -3 6 -14 10 -23 10 -15 0 -15 -2 -2
-10z"/>
<path d="M7170 1585 c-16 -19 -5 -47 17 -43 11 2 18 12 18 27 0 29 -17 37 -35
16z"/>
<path d="M6930 1581 c0 -5 3 -17 6 -25 5 -13 9 -14 20 -5 21 17 17 39 -6 39
-11 0 -20 -4 -20 -9z"/>
<path d="M2370 1342 c0 -9 -9 -34 -20 -55 -25 -46 -25 -47 1 -47 33 0 99 22
99 33 0 5 -11 18 -25 29 -14 11 -25 28 -25 39 0 10 -7 19 -15 19 -8 0 -15 -8
-15 -18z"/>
<path d="M5152 1354 c-37 -16 -38 -37 -2 -42 24 -4 50 20 50 45 0 16 -6 15
-48 -3z"/>
<path d="M4734 1336 c-4 -9 -1 -22 5 -30 6 -7 8 -15 5 -18 -2 -3 2 -8 10 -11
20 -8 38 17 34 45 -4 28 -45 38 -54 14z"/>
<path d="M4933 1353 c-16 -6 -17 -33 -2 -33 17 0 49 20 49 30 0 10 -26 12 -47
3z"/>
<path d="M8667 1083 c-4 -3 -7 -35 -7 -71 0 -56 2 -64 18 -59 9 2 24 6 32 8
23 6 40 -57 34 -123 l-6 -58 41 0 c54 0 91 34 91 83 0 87 -50 161 -140 207
-42 21 -53 24 -63 13z"/>
<path d="M8484 1043 c-17 -8 -39 -31 -49 -50 l-19 -35 28 -22 c15 -11 46 -37
68 -58 56 -51 158 -66 158 -22 0 10 -12 14 -45 14 -54 0 -58 7 -76 113 -7 42
-18 77 -23 76 -6 0 -25 -7 -42 -16z"/>
<path d="M8376 853 c9 -48 38 -106 67 -133 34 -33 96 -62 124 -58 35 4 41 26
9 38 -60 23 -109 64 -149 126 -22 35 -45 64 -49 64 -5 0 -6 -17 -2 -37z"/>
<path d="M9450 805 c0 -16 6 -25 15 -25 16 0 19 9 9 34 -9 25 -24 19 -24 -9z"/>
<path d="M9790 725 c-8 -10 -10 -31 -5 -65 8 -57 30 -68 40 -20 4 17 16 39 27
50 20 18 20 18 -10 34 -38 19 -37 19 -52 1z"/>
<path d="M4745 742 c-53 -26 -91 -67 -110 -121 -30 -85 -13 -156 53 -224 48
-50 76 -64 148 -76 51 -7 65 -6 102 12 49 22 107 91 123 147 14 47 -10 147
-48 196 -55 73 -186 105 -268 66z m128 -78 c3 -4 -1 -18 -11 -31 -15 -24 -15
-26 7 -44 19 -15 22 -25 16 -47 -4 -15 -9 -52 -12 -84 -4 -47 -8 -57 -26 -62
-34 -9 -60 29 -53 76 5 29 3 40 -9 44 -23 9 -19 76 6 108 26 34 68 54 82 40z"/>
<path d="M2224 466 c-3 -7 -6 -25 -7 -40 -2 -26 2 -29 74 -50 77 -22 166 -65
292 -139 40 -23 72 -36 77 -31 5 5 15 30 21 56 19 69 8 75 -195 102 -21 3 -47
14 -57 25 -10 10 -39 27 -66 36 -26 10 -67 26 -91 36 -33 14 -44 15 -48 5z"/>
<path d="M2277 253 c-12 -3 -16 -10 -13 -20 3 -8 6 -18 6 -23 0 -9 47 -21 212
-51 134 -24 182 -22 93 5 -33 10 -89 32 -125 49 -36 16 -77 31 -91 32 -14 1
-34 5 -45 7 -10 3 -27 3 -37 1z"/>
<path d="M5990 453 c0 -45 57 -133 139 -213 111 -110 158 -129 215 -87 22 16
24 60 5 83 -11 13 -25 15 -72 10 l-58 -7 -74 78 c-41 43 -85 97 -97 121 -27
50 -58 58 -58 15z"/>
<path d="M1146 5061 c-31 -70 -35 -152 -9 -227 23 -69 41 -91 98 -122 42 -22
63 -26 132 -27 76 0 84 2 120 31 80 64 106 128 93 229 -9 74 -35 130 -73 158
l-26 20 -49 -54 -50 -54 -43 24 c-24 13 -63 37 -86 53 -62 42 -76 38 -107 -31z"/>
<path d="M1334 5103 c25 -13 30 -13 44 0 14 14 11 16 -28 15 l-44 0 28 -15z"/>
<path d="M3400 5054 c1 -16 7 -58 15 -94 22 -98 20 -135 -8 -147 -37 -17 -176
-46 -192 -40 -8 4 -23 23 -33 44 -24 47 -57 77 -72 68 -8 -5 -10 -28 -5 -75
l7 -68 -34 -24 c-41 -31 -201 -100 -209 -90 -3 4 -16 32 -28 62 -23 58 -56
108 -65 99 -5 -5 33 -135 55 -182 7 -15 19 -27 28 -27 29 0 107 28 257 91 82
34 178 72 214 84 36 12 82 31 104 41 l38 19 -6 60 c-5 50 -47 189 -62 204 -2
2 -4 -9 -4 -25z"/>
<path d="M2764 4839 c-3 -5 2 -11 10 -14 9 -3 23 -7 31 -10 8 -2 15 2 15 9 0
16 -48 28 -56 15z"/>
<path d="M3654 454 c-4 -14 -3 -29 2 -33 5 -4 59 -22 121 -39 62 -17 129 -39
150 -48 l38 -17 -47 -9 c-38 -8 -68 -5 -162 16 -63 14 -117 26 -120 26 -7 0
-25 -93 -28 -145 l-3 -50 40 -8 c22 -4 69 -14 104 -23 64 -14 65 -14 91 11 42
40 82 30 113 -31 35 -67 44 -61 46 28 2 82 1 83 -30 109 -23 19 -30 31 -25 44
5 15 14 17 62 11 31 -3 69 -13 84 -21 16 -8 31 -15 33 -15 8 0 29 118 23 128
-6 10 -93 30 -161 37 -22 2 -94 16 -160 30 -153 32 -163 32 -171 -1z"/>
<path d="M4046 139 c-4 -33 -10 -67 -13 -75 -3 -8 1 -14 10 -14 18 0 24 15 33
78 4 36 2 51 -9 60 -12 11 -15 3 -21 -49z"/>
</g>
</svg>
